<?xml version="1.0" encoding="UTF-8" standalone="no"?>
<svg
   xmlns:dc="http://purl.org/dc/elements/1.1/"
   xmlns:cc="http://creativecommons.org/ns#"
   xmlns:rdf="http://www.w3.org/1999/02/22-rdf-syntax-ns#"
   xmlns:svg="http://www.w3.org/2000/svg"
   xmlns="http://www.w3.org/2000/svg"
   viewBox="0 0 773.37335 465"
   height="465"
   width="773.37335"
   xml:space="preserve"
   id="svg2"
   version="1.1"><metadata
     id="metadata8"><rdf:RDF><cc:Work
         rdf:about=""><dc:format>image/svg+xml</dc:format><dc:type
           rdf:resource="http://purl.org/dc/dcmitype/StillImage" /></cc:Work></rdf:RDF></metadata><defs
     id="defs6" /><g
     transform="matrix(1.3333333,0,0,-1.3333333,0,465)"
     id="g10"><g
       transform="scale(0.1)"
       id="g12"><path
         id="path14"
         style="fill:#ffffff;fill-opacity:1;fill-rule:nonzero;stroke:none"
         d="m 3668.26,3102.49 c -36.21,195.97 -191.08,349.28 -385.41,381.42 -9.37,1.56 -18.92,2.67 -28.47,3.6 h -453.13 -453.1 c -9.55,-0.93 -19.11,-2.04 -28.44,-3.6 -194.35,-32.13 -349.24,-185.44 -385.42,-381.42 -35.6,-192.94 54.18,-448.7 223.49,-550.25 60.56,-36.3 126.23,-57.33 199.38,-63.89 l 0.59,-0.7 c 174.07,-2.14 284.53,-77.45 357.94,-244 28.18,-64.01 56.78,-128.16 85.56,-192.24 28.82,64.07 57.4,128.23 85.59,192.24 73.38,166.55 183.87,241.86 357.95,244 l 0.6,0.7 c 73.15,6.56 138.82,27.59 199.38,63.89 169.26,101.55 259.09,357.3 223.49,550.25" /><path
         id="path16"
         style="fill:#ffffff;fill-opacity:1;fill-rule:nonzero;stroke:none"
         d="m 1085.2,3487.09 c -18.7,0.18 -37.86,0.29 -57.51,0.41 H 539.246 c -14.18,-0.03 -28.379,-0.08 -42.558,-0.08 H 354.949 v 0.08 H 0 c 206.711,-26.78 359.789,-124.86 455.383,-292.08 l 2.004,-3.52 c 17.48,-30.52 35.496,-62.05 51.601,-97.64 181,-400.64 330.7,-749.77 475.543,-1087.37 C 1127.12,1674.31 1274.61,1330.44 1452.1,937.141 l 56.01,-124.121 c 113.63,-251.79 230.97,-511.872 346.04,-768.6098 0.04,0 0.08,0 0.12,0 l 20,-44.4102 20.04,44.3711 c 0.04,0 0.11,0 0.15,0 143.53,319.4099 300.16,666.0389 478.35,1058.4989 l -967.2,2197.03 c -69.71,127.63 -170.21,185.99 -320.41,187.19" /><path
         id="path18"
         style="fill:#ffffff;fill-opacity:1;fill-rule:nonzero;stroke:none"
         d="m 2797.74,1352.1 4.36,-22.16 h 2.37 l 4.35,20.97 96.17,430.18 h 118.33 L 2862.25,1204.9 h -117.13 l -161.07,576.19 h 118.32 l 95.37,-428.99" /><path
         id="path20"
         style="fill:#ffffff;fill-opacity:1;fill-rule:nonzero;stroke:none"
         d="m 3333.39,1574.55 c 0,41.27 -7.65,72.44 -22.95,93.45 -15.3,21.05 -37.59,31.57 -66.88,31.57 -29.54,0 -51.71,-10.47 -66.48,-31.36 -14.78,-20.92 -22.16,-52.13 -22.16,-93.66 v -162.72 c 0,-41.82 7.52,-73.16 22.58,-94.08 15.01,-20.88 37.18,-31.35 66.47,-31.35 29.01,0 51.17,10.47 66.47,31.35 15.3,20.92 22.95,52.26 22.95,94.08 z m 112,-162.69 c 0,-67.54 -18.34,-120.3 -55,-158.29 -36.68,-38.01 -85.49,-56.99 -146.43,-56.99 -60.96,0 -109.63,18.98 -146.04,56.99 -36.41,37.99 -54.62,90.75 -54.62,158.29 v 161.48 c 0,67.26 18.21,120.09 54.62,158.48 36.41,38.39 84.95,57.57 145.62,57.57 60.67,0 109.49,-19.18 146.44,-57.57 36.93,-38.39 55.41,-91.22 55.41,-158.48 v -161.48 0" /><path
         id="path22"
         style="fill:#ffffff;fill-opacity:1;fill-rule:nonzero;stroke:none"
         d="m 3622.36,1204.89 h -111.99 v 576.2 h 111.99 v -576.2" /><path
         id="path24"
         style="fill:#ffffff;fill-opacity:1;fill-rule:nonzero;stroke:none"
         d="m 4067.38,1390.48 1.19,-2.36 c 0.53,-63.32 -14.51,-111.07 -45.14,-143.26 -30.6,-32.19 -75.71,-48.28 -135.34,-48.28 -59.61,0 -107.24,18.26 -142.85,54.8 -35.62,36.55 -53.44,88.32 -53.44,155.33 v 172.15 c 0,66.75 17.23,118.54 51.66,155.33 34.43,36.79 80.53,55.2 138.29,55.2 61.21,0 107.44,-16.36 138.71,-49.07 31.27,-32.71 47.43,-81.13 48.48,-145.23 l -1.15,-2.38 h -108.45 c 1.57,37.87 -3.54,65.16 -15.45,81.84 -11.86,16.68 -32.59,25.02 -62.14,25.02 -25.32,0 -44.7,-9.91 -58.15,-29.71 -13.45,-19.81 -20.19,-49.79 -20.19,-89.92 v -173.11 c 0,-40.66 7.18,-70.92 21.55,-90.72 14.39,-19.79 35.43,-29.71 63.12,-29.71 27.19,0 46.11,7.85 56.8,23.54 10.68,15.71 15.37,42.56 14.06,80.54 h 108.44 v 0" /><path
         id="path26"
         style="fill:#ffffff;fill-opacity:1;fill-rule:nonzero;stroke:none"
         d="m 4446.09,1457.76 h -193.54 v -163.05 h 227.54 v -89.81 h -340.33 v 576.19 h 339.55 v -89.84 h -226.76 v -143.66 h 193.54 v -89.83" /><path
         id="path28"
         style="fill:#ffffff;fill-opacity:1;fill-rule:nonzero;stroke:none"
         d="m 4789.04,1355.26 c 0,22.42 -5.8,40.18 -17.4,53.22 -11.63,13.07 -32.07,25.92 -61.35,38.59 -59.9,20.84 -104.81,44.53 -134.77,71.03 -29.94,26.52 -44.92,63.65 -44.92,111.43 0,47.2 17.42,85.65 52.27,115.34 34.8,29.67 79.25,44.52 133.36,44.52 54.88,0 99.45,-16.56 133.77,-49.67 34.27,-33.1 50.89,-74.87 49.86,-125.23 l -0.8,-2.39 h -109.22 c 0,26.39 -6.6,47.75 -19.81,64.13 -13.2,16.34 -31.79,24.53 -55.8,24.53 -22.42,0 -39.9,-6.81 -52.44,-20.39 -12.54,-13.59 -18.81,-30.67 -18.81,-51.25 0,-19 7,-34.61 21,-46.9 13.96,-12.26 38.24,-25.92 72.81,-40.96 54.61,-18.46 95.71,-41.88 123.26,-70.24 27.56,-28.36 41.35,-66.69 41.35,-114.96 0,-49.85 -16.58,-88.92 -49.82,-117.14 -33.25,-28.23 -77.44,-42.34 -132.58,-42.34 -54.88,0 -102.44,16.04 -142.68,48.08 -40.23,32.05 -59.7,78.04 -58.38,137.91 l 0.79,2.39 h 109.62 c 0,-35.63 7.52,-61.21 22.56,-76.78 15.04,-15.57 37.74,-23.35 68.09,-23.35 23.75,0 41.37,6.34 52.79,18.99 11.51,12.67 17.25,29.8 17.25,51.44" /><path
         id="path30"
         style="fill:#ffffff;fill-opacity:1;fill-rule:nonzero;stroke:none"
         d="m 2900.23,785.172 c 0,41.277 -7.65,72.437 -22.95,93.476 -15.3,21.032 -37.59,31.543 -66.88,31.543 -29.55,0 -51.71,-10.453 -66.48,-31.351 -14.78,-20.91 -22.16,-52.129 -22.16,-93.668 V 622.461 c 0,-41.813 7.52,-73.172 22.56,-94.07 15.05,-20.891 37.2,-31.34 66.48,-31.34 29.01,0 51.18,10.449 66.48,31.34 15.3,20.898 22.95,52.269 22.95,94.07 v 162.711 z m 112,-162.672 c 0,-67.559 -18.34,-120.32 -55,-158.309 -36.68,-37.98 -85.48,-56.992 -146.43,-56.992 -60.94,0 -109.63,19.012 -146.03,56.992 -36.42,37.989 -54.61,90.75 -54.61,158.309 v 161.449 c 0,67.281 18.19,120.102 54.61,158.492 36.4,38.399 84.94,57.589 145.62,57.589 60.67,0 109.49,-19.19 146.43,-57.589 36.94,-38.39 55.4,-91.211 55.4,-158.492 V 622.5 h 0.01" /><path
         id="path32"
         style="fill:#ffffff;fill-opacity:1;fill-rule:nonzero;stroke:none"
         d="M 3381.28,654.941 H 3185.8 V 415.52 H 3073 v 576.191 h 342.71 v -89.82 H 3185.8 V 744.77 h 195.48 v -89.829" /><path
         id="path34"
         style="fill:#ffffff;fill-opacity:1;fill-rule:nonzero;stroke:none"
         d="m 3842.5,744.77 h 2.38 l 96.15,246.941 h 122.29 L 3898.71,620.5 V 415.52 H 3786.3 v 212.109 l -161.85,364.082 h 123.08 L 3842.5,744.77" /><path
         id="path36"
         style="fill:#ffffff;fill-opacity:1;fill-rule:nonzero;stroke:none"
         d="m 4359.04,785.172 c 0,41.277 -7.66,72.437 -22.93,93.476 -15.31,21.032 -37.64,31.543 -66.9,31.543 -29.55,0 -51.71,-10.453 -66.48,-31.351 -14.79,-20.91 -22.17,-52.129 -22.17,-93.668 V 622.461 c 0,-41.813 7.52,-73.172 22.56,-94.07 15.06,-20.891 37.21,-31.34 66.48,-31.34 29.03,0 51.2,10.449 66.51,31.34 15.27,20.898 22.93,52.269 22.93,94.07 z M 4471.03,622.5 c 0,-67.559 -18.34,-120.32 -55.02,-158.309 -36.66,-37.98 -85.49,-56.992 -146.43,-56.992 -60.93,0 -109.62,19.012 -146.01,56.992 -36.43,37.989 -54.63,90.75 -54.63,158.309 v 161.449 c 0,67.281 18.2,120.102 54.63,158.492 36.39,38.399 84.94,57.589 145.62,57.589 60.69,0 109.5,-19.19 146.43,-57.589 36.93,-38.39 55.41,-91.211 55.41,-158.492 V 622.5 v 0" /><path
         id="path38"
         style="fill:#ffffff;fill-opacity:1;fill-rule:nonzero;stroke:none"
         d="m 4919.64,991.711 v -392.18 c 0,-61.472 -18,-108.902 -54.02,-142.269 -36,-33.391 -83.14,-50.082 -141.46,-50.082 -58.31,0 -105.47,16.769 -141.47,50.281 -36.02,33.5 -54.02,80.859 -54.02,142.051 v 392.179 h 112.4 V 599.512 c 0,-35.082 7.25,-60.942 21.76,-77.563 14.51,-16.617 34.96,-24.918 61.34,-24.918 27.17,0 47.88,7.91 62.13,23.731 14.24,15.84 21.37,42.09 21.37,78.75 v 392.179 h 111.97 v 0.02" /><path
         id="path40"
         style="fill:#ffffff;fill-opacity:1;fill-rule:nonzero;stroke:none"
         d="M 5339.55,901.879 H 5209.72 V 415.5 h -112.38 v 486.379 h -129.01 v 89.812 h 371.22 v -89.812 0" /><path
         id="path42"
         style="fill:#ffffff;fill-opacity:1;fill-rule:nonzero;stroke:none"
         d="M 5800.31,415.52 H 5687.92 V 654.16 H 5509.04 V 415.52 h -112.79 v 576.191 h 112.79 V 744 h 178.88 v 247.711 h 112.39 V 415.52" /></g></g></svg>